<?xml version="1.0" standalone="no"?>
<!DOCTYPE svg PUBLIC "-//W3C//DTD SVG 20010904//EN"
 "http://www.w3.org/TR/2001/REC-SVG-20010904/DTD/svg10.dtd">
<svg version="1.0" xmlns="http://www.w3.org/2000/svg"
 width="512.000000pt" height="512.000000pt" viewBox="0 0 512.000000 512.000000"
 preserveAspectRatio="xMidYMid meet">

<g transform="translate(0.000000,512.000000) scale(0.100000,-0.100000)"
fill="#000000" stroke="none">
<path d="M590 5111 c-50 -15 -89 -41 -124 -82 -32 -37 -59 -113 -251 -688
-139 -419 -215 -661 -215 -688 0 -87 50 -174 123 -217 54 -32 564 -186 638
-193 112 -11 207 46 256 154 16 34 29 51 36 46 7 -4 237 -172 513 -374 275
-202 520 -377 545 -390 38 -21 58 -24 144 -24 90 0 105 3 153 28 138 73 211
219 190 380 -12 92 -48 147 -198 306 -76 81 -142 159 -145 173 -4 16 -1 38 9
55 12 24 54 48 248 140 128 61 247 113 264 117 18 4 48 1 72 -7 22 -8 294
-163 604 -345 310 -181 586 -338 613 -347 67 -23 203 -31 274 -15 134 29 243
105 291 204 29 59 32 71 28 143 -7 145 102 32 -1293 1353 -145 137 -268 190
-440 191 -82 0 -150 -14 -760 -160 -369 -87 -682 -162 -696 -166 -25 -6 -27
-4 -33 42 -8 62 -53 134 -104 168 -53 35 -617 205 -675 204 -23 0 -53 -4 -67
-8z m363 -246 c297 -89 317 -99 317 -154 0 -14 -93 -304 -206 -643 -217 -651
-220 -658 -278 -658 -11 0 -147 38 -301 84 -282 85 -299 93 -311 143 -4 14 71
252 202 645 212 638 225 668 274 668 11 0 148 -38 303 -85z m2094 -20 c28 -8
76 -32 106 -53 72 -48 1310 -1223 1325 -1257 18 -39 14 -94 -8 -130 -12 -19
-45 -46 -82 -66 -59 -32 -69 -34 -158 -34 -80 0 -102 4 -140 24 -25 13 -292
169 -595 347 -437 257 -563 327 -615 340 -105 27 -148 14 -444 -127 -284 -135
-313 -156 -341 -253 -19 -63 -19 -90 0 -154 14 -45 36 -73 153 -198 163 -173
182 -200 182 -271 0 -63 -13 -99 -48 -136 -39 -42 -75 -57 -130 -57 -40 0 -60
7 -98 33 -149 100 -1054 771 -1053 781 0 6 67 206 147 445 l147 434 720 172
c777 187 819 194 932 160z"/>
<path d="M802 4585 c-41 -34 -44 -84 -7 -120 74 -75 192 31 123 109 -35 40
-78 43 -116 11z"/>
<path d="M2965 2605 c-42 -16 -290 -221 -417 -345 -56 -54 -69 -74 -83 -123
-16 -55 -15 -65 10 -270 14 -116 28 -224 31 -238 4 -23 -15 -44 -179 -192
-286 -258 -284 -240 -89 -711 73 -176 142 -338 155 -360 41 -75 80 -94 453
-225 192 -68 369 -126 394 -128 75 -8 121 12 303 132 l174 115 259 -127 c257
-126 260 -127 329 -127 53 0 80 5 111 21 62 33 514 407 551 456 51 67 66 154
38 230 -7 21 -54 101 -105 176 l-91 138 141 216 c78 119 148 237 157 263 30
87 18 123 -130 421 -135 269 -166 317 -229 349 -16 8 -192 83 -391 166 -385
161 -433 174 -513 148 -22 -7 -112 -62 -202 -122 -110 -74 -167 -106 -175
-100 -7 5 -66 51 -132 103 -66 51 -139 104 -163 117 -54 31 -149 38 -207 17z
m202 -222 c155 -117 313 -245 532 -431 186 -158 219 -182 248 -182 70 0 106
78 63 133 -12 15 -104 97 -206 183 -149 126 -183 159 -172 169 36 33 267 175
285 175 27 0 743 -297 767 -318 10 -10 74 -129 143 -266 88 -177 124 -257 121
-275 -4 -25 -271 -439 -483 -749 -65 -95 -105 -163 -105 -178 0 -31 50 -84 79
-84 44 0 70 27 166 166 54 79 102 141 106 137 21 -25 127 -192 133 -211 5 -13
3 -35 -4 -50 -13 -31 -469 -410 -512 -426 -26 -9 -48 -1 -229 89 -110 55 -203
103 -205 106 -2 4 19 21 46 39 56 36 70 55 70 95 0 33 -50 85 -82 85 -15 0
-146 -81 -331 -205 -169 -113 -316 -205 -327 -205 -37 0 -705 240 -721 259
-23 28 -279 655 -279 685 0 13 10 36 23 49 40 44 235 217 244 217 5 0 28 -107
52 -237 24 -131 48 -249 55 -263 14 -31 60 -54 91 -46 36 9 65 45 65 80 0 17
-25 164 -55 326 -66 350 -129 809 -116 843 9 22 339 317 385 344 39 23 65 13
153 -54z"/>
<path d="M3351 1654 c-53 -44 -45 -67 84 -262 93 -141 115 -180 115 -209 0
-33 -12 -48 -126 -163 -101 -103 -125 -133 -126 -157 -2 -60 40 -99 96 -89 43
8 276 242 305 306 23 51 27 138 9 191 -6 19 -65 114 -130 212 -139 208 -162
226 -227 171z"/>
<path d="M4238 1428 c-151 -102 -184 -186 -139 -353 39 -143 48 -155 114 -155
42 0 77 34 77 76 0 16 -9 66 -21 111 -12 47 -19 92 -15 107 4 17 31 42 80 76
81 54 106 82 106 118 0 31 -52 82 -84 82 -14 0 -65 -27 -118 -62z"/>
</g>
</svg>
