<?xml version="1.0" standalone="no"?>
<!DOCTYPE svg PUBLIC "-//W3C//DTD SVG 20010904//EN"
 "http://www.w3.org/TR/2001/REC-SVG-20010904/DTD/svg10.dtd">
<svg version="1.0" xmlns="http://www.w3.org/2000/svg"
 width="512.000000pt" height="512.000000pt" viewBox="0 0 512.000000 512.000000"
 preserveAspectRatio="xMidYMid meet">

<g transform="translate(0.000000,512.000000) scale(0.100000,-0.100000)"
fill="#000000" stroke="none">
<path d="M2227 5110 c-20 -5 -56 -19 -80 -31 -115 -59 -173 -139 -208 -288
-13 -56 -27 -101 -31 -101 -5 0 -113 23 -241 52 -294 66 -368 69 -469 21 -79
-37 -146 -102 -182 -176 -25 -52 -146 -576 -146 -634 0 -41 25 -71 68 -82 121
-33 3106 -681 3134 -681 66 0 69 7 139 326 71 319 77 389 39 487 -30 79 -111
166 -187 200 -32 14 -169 50 -306 80 -136 30 -250 56 -252 59 -2 2 2 31 9 63
34 146 29 231 -19 325 -43 84 -133 159 -224 186 -106 31 -881 196 -941 199
-36 2 -82 0 -103 -5z m544 -250 c228 -50 435 -97 460 -106 83 -27 139 -109
139 -201 -1 -47 -23 -159 -34 -171 -5 -4 -1160 242 -1239 265 -16 4 -17 11
-12 46 29 172 101 256 221 257 30 0 232 -39 465 -90z m-87 -512 c703 -153
1295 -287 1315 -297 69 -36 111 -104 111 -181 0 -39 -94 -487 -104 -498 -5 -4
-2947 636 -2955 644 -2 1 20 111 49 244 56 257 72 295 134 338 35 24 105 40
146 34 14 -2 600 -130 1304 -284z"/>
<path d="M992 3160 c-12 -11 -24 -31 -27 -43 -3 -12 -4 -627 -3 -1367 3 -1189
5 -1351 19 -1395 57 -182 197 -312 368 -345 73 -14 1949 -14 2022 0 130 25
258 117 318 230 71 132 65 8 68 1521 l3 1366 -24 26 -25 27 -1349 0 c-1341 0
-1348 0 -1370 -20z m2596 -1447 l-3 -1308 -26 -55 c-34 -74 -76 -120 -136
-150 l-48 -25 -1004 -3 -1004 -2 -52 24 c-67 30 -121 85 -154 155 l-26 56 -3
1308 -2 1307 1230 0 1230 0 -2 -1307z"/>
<path d="M1723 2706 l-28 -24 0 -1005 0 -1005 24 -26 c24 -26 61 -33 96 -20
46 18 45 1 45 1049 0 731 -3 992 -12 1008 -27 52 -80 62 -125 23z"/>
<path d="M2309 2704 l-24 -26 -3 -976 c-1 -537 0 -992 3 -1010 8 -42 41 -72
79 -72 38 1 62 18 76 54 14 38 14 1964 0 2002 -23 59 -89 73 -131 28z"/>
<path d="M2899 2717 c-39 -30 -39 -25 -39 -1042 0 -1048 -1 -1031 45 -1049 35
-13 72 -6 96 20 l24 26 0 1005 0 1005 -28 24 c-30 26 -72 31 -98 11z"/>
</g>
</svg>
