<?xml version="1.0" standalone="no"?>
<!DOCTYPE svg PUBLIC "-//W3C//DTD SVG 20010904//EN"
 "http://www.w3.org/TR/2001/REC-SVG-20010904/DTD/svg10.dtd">
<svg version="1.0" xmlns="http://www.w3.org/2000/svg"
 width="300.000000pt" height="300.000000pt" viewBox="0 0 300.000000 300.000000"
 preserveAspectRatio="xMidYMid meet">

<g transform="translate(0.000000,300.000000) scale(0.100000,-0.100000)"
fill="#000000" stroke="none">
<path d="M2384 2949 c-62 -18 -127 -71 -157 -129 -26 -49 -28 -63 -24 -125 2
-38 7 -77 10 -85 5 -11 -98 -120 -357 -379 l-364 -364 -33 20 c-19 11 -51 26
-71 32 l-37 12 -3 95 -3 95 40 24 c53 31 80 61 105 118 42 96 23 205 -50 278
-78 78 -182 99 -275 55 -107 -49 -150 -116 -150 -232 0 -72 3 -86 30 -129 18
-29 52 -63 83 -84 l52 -35 0 -93 c0 -68 -3 -93 -12 -93 -7 0 -42 -14 -77 -31
l-65 -30 -234 234 -233 233 12 48 c33 130 -44 272 -167 306 -115 32 -232 -11
-290 -108 -55 -90 -55 -174 0 -264 43 -72 107 -111 192 -116 35 -2 78 1 96 7
l32 11 237 -236 237 -237 -18 -31 c-10 -17 -24 -50 -31 -73 l-12 -43 -138 0
-137 0 -31 47 c-64 101 -188 146 -294 109 -126 -46 -200 -183 -163 -307 61
-214 337 -254 457 -68 l31 49 137 0 138 0 12 -42 c7 -24 21 -57 31 -74 l18
-32 -234 -233 c-157 -158 -239 -233 -251 -231 -57 10 -126 14 -156 8 -84 -16
-167 -104 -189 -198 -22 -98 30 -211 122 -265 47 -29 63 -33 122 -33 79 0 119
14 172 60 70 62 100 162 77 256 l-12 48 233 233 233 233 40 -20 c22 -11 57
-26 78 -32 l37 -11 0 -266 0 -266 -31 -14 c-50 -22 -106 -87 -125 -143 -46
-138 27 -283 162 -324 64 -19 103 -18 168 7 131 49 194 205 136 336 -25 57
-52 87 -105 118 l-40 24 3 265 3 265 37 12 c20 6 53 20 73 30 l36 18 151 -152
c113 -113 149 -156 143 -167 -16 -29 -21 -99 -10 -149 41 -194 304 -260 434
-109 110 129 73 317 -77 392 -56 28 -143 35 -194 16 -27 -11 -33 -6 -177 138
l-150 150 21 44 c12 24 24 58 28 76 l7 32 397 0 398 0 12 -30 c17 -42 88 -104
143 -125 145 -55 315 54 334 214 11 96 -49 205 -141 254 -31 16 -59 21 -111
21 -52 0 -80 -5 -111 -21 -45 -24 -108 -89 -119 -122 -6 -21 -8 -21 -404 -21
l-398 0 -7 32 c-4 18 -16 52 -28 76 l-21 44 360 360 360 360 57 -13 c161 -36
306 82 306 250 0 55 -5 75 -30 118 -60 104 -177 154 -286 122z m122 -183 c58
-49 20 -146 -56 -146 -16 0 -41 11 -56 24 -58 49 -20 146 56 146 16 0 41 -11
56 -24z m-2118 -258 c46 -44 19 -127 -48 -142 -16 -4 -36 1 -57 13 -57 35 -57
107 0 142 37 22 70 18 105 -13z m928 -82 c58 -49 20 -146 -57 -146 -70 0 -106
94 -54 145 31 32 75 32 111 1z m49 -680 c28 -12 67 -41 87 -64 35 -39 68 -119
68 -167 0 -48 -33 -128 -68 -167 -105 -116 -284 -116 -383 1 -42 48 -59 98
-59 172 0 181 191 302 355 225z m-980 -171 c53 -52 16 -145 -58 -145 -55 0
-96 52 -83 105 16 64 96 86 141 40z m2366 12 c44 -34 51 -96 14 -132 -25 -26
-72 -33 -104 -15 -25 13 -45 64 -37 95 14 54 85 84 127 52z m-661 -785 c44
-55 6 -136 -65 -136 -90 0 -116 123 -34 158 40 17 75 10 99 -22z m-1702 -164
c34 -33 30 -89 -9 -122 -40 -34 -70 -33 -108 3 -36 33 -41 74 -13 107 39 48
86 52 130 12z m928 -252 c58 -49 20 -146 -57 -146 -70 0 -106 94 -54 145 31
32 75 32 111 1z"/>
</g>
</svg>
